<!--
SPDX-FileCopyrightText: Copyright (c) 2020-2022 Paweł Kuna, https://tabler-icons.io/
SPDX-FileCopyrightText: Copyright (c) 2022 Neradoc, https://neradoc.me
SPDX-License-Identifier: MIT
-->
<svg xmlns="http://www.w3.org/2000/svg" class="icon icon-tabler icon-tabler-file" width="44" height="44" viewBox="2 2 20 20" stroke-width="1.5" stroke="#000000" fill="none" stroke-linecap="round" stroke-linejoin="round">
  <path stroke="none" d="M0 0h24v24H0z" fill="none"/>
  <path d="M17 21h-10a2 2 0 0 1 -2 -2v-14a2 2 0 0 1 2 -2h7l5 5v11a2 2 0 0 1 -2 2z" fill="#fff"/>
  <path d="M14 3v4a1 1 0 0 0 1 1h4" />

<g transform="scale(0.5, 0.5) translate(12,16)" stroke-width="2">
  <path d="M8.2 13.2a16 16 0 0 1 12.8 -10.2 a16 16 0 0 1 -10.2 12.8" fill="#D80" />
  <path d="M3 21v-4 a4 4 0 1 1 4 4h-4" fill="#FFB"/>
  <path d="M4 20v-3 a1 1 1 1 1 3 3h-3" fill="#0B0" stroke-width="0"/>
  <path d="M10.6 9a9 9 0 0 1 4.4 4.4"/>
</g>


</svg>