<svg xmlns="http://www.w3.org/2000/svg" class="icon icon-tabler icon-tabler-photo" width="44" height="44" viewBox="2 2 20 20" stroke-width="1.5" stroke="#000000" fill="none" stroke-linecap="round" stroke-linejoin="round">
  <path stroke="none" d="M0 0h24v24H0z" fill="none"/>
  <rect x="4" y="4" width="16" height="16" rx="3" fill="#ABF" />

  <path d="M4 15
  	l 4 -4
  	a 3 5 0 0 1 3 0
  	l 3 3 l 1 -1
  	a 3 5 0 0 1 3 0
  	l 2 2
  	v 2
  	a 3 3 0 0 1 -3 3
  	h -10
  	a 3 3 0 0 1 -3 -3
  	v -2
  	"
  	stroke-width="0"
  	fill="#282"/>

  <path d="M4 15l4 -4a3 5 0 0 1 3 0l5 5" />
  <path d="M14 14l1 -1a3 5 0 0 1 3 0l2 2" />
  <g fill="#FFF" stroke-width="0"
    transform="rotate(180 8 8) scale(0.3 0.3) translate(8 21)">
    <path d="M7 18a4.6 4.4 0 0 1 0 -9a5 4.5 0 0 1 11 2h1a3.5 3.5 0 0 1 0 7h-12" />
  </g>
  <circle cx="15" cy="8" r="1" stroke-width="0.25" fill="yellow"/>

  <rect x="4" y="4" width="16" height="16" rx="3" fill="none" />
</svg>