<!--
SPDX-FileCopyrightText: Copyright (c) 2020-2022 Paweł Kuna, https://tabler-icons.io/
SPDX-FileCopyrightText: Copyright (c) 2022 Neradoc, https://neradoc.me
SPDX-License-Identifier: MIT
-->
<svg xmlns="http://www.w3.org/2000/svg" class="icon icon-tabler icon-tabler-question-mark" width="20" height="20" viewBox="0 0 20 20" stroke-width="2" stroke="none" fill="none" stroke-linecap="round" stroke-linejoin="round">
  <path d="M6 6  a3.5 3 0 0 1 3.5 -3h1a3.5 3 0 0 1 3.5 3a3 3 0 0 1 -2 3a3 4 0 0 0 -2 4"
    stroke-width="3.5"
    stroke="black"
  />
  <circle cx="10" cy="17" r="1.9" stroke="none"
    fill="black"
  />
  <path d="M6 6  a3.5 3 0 0 1 3.5 -3h1a3.5 3 0 0 1 3.5 3a3 3 0 0 1 -2 3a3 4 0 0 0 -2 4"
    stroke="white"
  />
  <circle cx="10" cy="17" r="1.2" stroke="none"
    fill="white"
  />
</svg>
