<svg xmlns="http://www.w3.org/2000/svg" class="icon icon-tabler icon-tabler-edit" width="44" height="44" viewBox="0 0 24 24" stroke-width="1.5" stroke="#000000" fill="none" stroke-linecap="round" stroke-linejoin="round">
  <path stroke="none" d="M0 0h24v24H0z"/>

  <path d="M14 3v4a1 1 0 0 0 1 1h4" />
  <path d="M17 21h-10a2 2 0 0 1 -2 -2v-14a2 2 0 0 1 2 -2h7l5 5v11a2 2 0 0 1 -2 2z" fill="#fff"/>
  <line x1="9" y1="9" x2="10" y2="9" />
  <line x1="9" y1="13" x2="15" y2="13" />
  <line x1="9" y1="17" x2="15" y2="17" />

  <path d="M16.5,10.5 l 4,-4 a 1.5,1.5,0,0,0,-3,-3 l -4,4 z" stroke="#fff" stroke-width="2.5"/>
  <path d="M9 15h3l8.5 -8.5a1.5 1.5 0 0 0 -3 -3l-8.5 8.5v3" fill="#ffffff" />
  <line x1="16" y1="5" x2="19" y2="8" />

</svg>
