<svg xmlns="http://www.w3.org/2000/svg" class="icon icon-tabler icon-tabler-edit" width="44" height="44" viewBox="2 2 20 20" stroke-width="1.5" stroke="#000000" fill="none" stroke-linecap="round" stroke-linejoin="round">
  <path stroke="none" d="M0 0h24v24H0z"/>

  <path d="M14 3v4a1 1 0 0 0 1 1h4" />
  <path d="M17 21h-10a2 2 0 0 1 -2 -2v-14a2 2 0 0 1 2 -2h7l5 5v11a2 2 0 0 1 -2 2z" fill="#fff"/>
  <line x1="9" y1="9" x2="10" y2="9" />
  <line x1="9" y1="13" x2="15" y2="13" />
  <line x1="9" y1="17" x2="15" y2="17" />

  <path d="M19.5 7.5 l1 -1 a1.5 1.5 0 0 0 -3 -3 l-1 1" fill="#F00" /> -->
  <path d="M9 15 h3 l7.5 -7.5 l -3 -3 l-7.5 7.5 v3" fill="#FF8" />
</svg>
