<svg xmlns="http://www.w3.org/2000/svg" class="icon icon-tabler icon-tabler-folder" width="44" height="44" viewBox="2 2 20 20" stroke-width="1.5" stroke="#000000" fill="none" stroke-linecap="round" stroke-linejoin="round">
  <path stroke="none" d="M0 0h24v24H0z" fill="none"/>
  <path d="M5 4h4l3 3h7a2 2 0 0 1 2 2v8a2 2 0 0 1 -2 2h-14a2 2 0 0 1 -2 -2v-11a2 2 0 0 1 2 -2" fill="#AAF" />
  <g transform="scale(0.5 0.5) translate(12 14)" stroke-width="2.5">
  <path d="M3 19 a9 9 0 0 1  9 0 a9 9 0 0 1  9 0 v -13
                 a9 9 0 0 0 -9 0 a9 9 0 0 0 -9 0 v  13" fill="#DDF"/>
  <line x1="12" y1="6" x2="12" y2="19" />
  </g>
</svg>