<svg xmlns="http://www.w3.org/2000/svg" class="icon icon-tabler icon-tabler-folder" width="44" height="44" viewBox="2 2 20 20" stroke-width="1.5" stroke="#000000" fill="none" stroke-linecap="round" stroke-linejoin="round">
  <path stroke="none" d="M0 0h24v24H0z" fill="none"/>
  <g transform="scale(0.8, 0.8) translate(4, 8)">
    <path d="M5 4h4l3 3h7a2 2 0 0 1 2 2v8a2 2 0 0 1 -2 2h-14a2 2 0 0 1 -2 -2v-11a2 2 0 0 1 2 -2" fill="#AAf" />
  </g>
  <g transform="scale(0.8, 0.8) translate(4, 0.5)">

    <path d="M9 20v-8h-3.586a1 1 0 0 1 -.707 -1.707l6.586 -6.586a1 1 0 0 1 1.414 0l6.586 6.586a1 1 0 0 1 -.707 1.707h-3.586v8a1 1 0 0 1 -1 1h-4a1 1 0 0 1 -1 -1z" fill="#fff"/>
  </g>
</svg>