<?xml version="1.0" encoding="utf-8"?>
<!-- Svg Vector Icons : http://www.onlinewebfonts.com/icon -->
<!DOCTYPE svg PUBLIC "-//W3C//DTD SVG 1.1//EN" "http://www.w3.org/Graphics/SVG/1.1/DTD/svg11.dtd">
<svg version="1.1" xmlns="http://www.w3.org/2000/svg" xmlns:xlink="http://www.w3.org/1999/xlink" x="0px" y="0px" viewBox="0 0 1000 1000" enable-background="new 0 0 1000 1000" xml:space="preserve">
<metadata> Svg Vector Icons : http://www.onlinewebfonts.com/icon </metadata>
<g>
	<g transform="translate(12,510) scale(0.098,-0.098)">
		<path
		fill="red" stroke-width="250" stroke="#000"
		d="M5722.7,3144.4
		l-111.4,67.2 c-172.8,103.7-364.7,115.2-526,32.6 c-80.6-42.2-4323.1-4279-4478.6-4474.8 c-240-299.5-372.4-558.6-462.6-894.6 c-38.4-149.8-44.2-215-44.2-526 c0-328.3,3.8-368.6,53.7-545.2 c264.9-952.2,1092.3-1589.5,2067.5-1591.4 c491.4-1.9,904.2,136.3,1315,439.6 c124.8,92.2,777.5,731.4,2328.6,2280.6 C7051.2-883,8045.6,122.9,8076.3,167 
		c119,178.5,115.2,416.6-9.6,593.2 l-63.3,92.1 z"
		/>
		<path fill="#AAA" stroke-width="250" stroke="#000"
		d="M8000 800 l948.3,950.2 c522.2,524.1,948.3,963.7,948.3,979 c0,44.1-2211.5,2246-2255.6,2246 C7621.3,5027.7,7266.2,4687.9,6665.3,4087 l-942.6-942.6 z" />

		<path d="M7302.7,3296.1 c140.1-140.1,255.3-266.8,255.3-282.2 c0-38.4-499.1-539.4-537.5-539.4 S6483,2973.6,6483,3012 c0,36.5,499.1,537.5,535.6,537.5 C7033.9,3549.5,7160.6,3436.3,7302.7,3296.1 z"
		fill="white"/>
		<path d="M8185.7,2413.1 c140.1-140.1,255.3-268.8,255.3-284.1 c0-38.4-501-537.5-537.5-537.5 S7366,2090.6,7366,2125.1 c0,44.2,485.7,539.4,527.9,541.4 C7917,2666.5,8028.3,2570.5,8185.7,2413.1 z"
		fill="white"/>
		<path d="M5356.1,908 c105.6-34.6,257.2-172.8,307.1-280.3 c182.4-387.8-65.3-802.4-497.2-837 c-107.5-7.7-226.5,9.6-322.5,46.1 c-26.9,11.5-30.7-26.9-30.7-401.2 v-412.7 l71-25 c96-30.7,234.2-163.2,280.3-266.8 c86.4-190.1,30.7-430-132.5-574 c-197.7-172.8-483.8-149.7-668.1,55.7 c-96,107.5-128.6,192-130.5,334 c0,186.2,71,316.8,215,397.4 l76.8,44.2 v278.3 V-453 l-328.3-326.3 c-180.4-180.5-535.6-539.4-789-802.4 L2945-2056 l99.8-105.6 c107.5-113.3,124.8-184.3,65.3-255.3 c-38.4-42.2-823.5-311-913.8-311 c-61.4,0-147.8,74.9-147.8,128.6 c0,59.5,288,904.2,316.7,927.2 c15.4,13.4,57.6,23,96,25 c57.6,1.9,84.5-13.4,168.9-97.9 l99.8-99.8 l863.9,863.9 l863.9,863.8 h-403.1 h-403.1 l-201.6-201.6 l-199.6-199.6 l90.2-96 c49.9-53.7,90.2-109.4,90.2-126.7 c0-65.3-63.3-142.1-312.9-387.8 c-345.5-343.6-312.9-343.6-668.1,11.5 c-274.5,274.5-316.7,334-287.9,410.8 c9.6,23,142.1,165.1,293.7,316.7 c324.4,318.7,330.2,320.6,478,182.4 l96-88.3 l245.7,241.9 l245.7,243.8 h526 h526 l-5.8,145.9 c-7.7,180.4,26.9,287.9,136.3,407 C4887.7,940.7,5093.1,992.5,5356.1,908 z"
		fill="white"/>

		<path d="M5056.6,623.9 c-92.2-34.6-119-55.7-155.5-134.4 c-97.9-205.4,55.7-433.8,272.6-407 c268.8,34.6,341.7,355.1,119,512.6 C5223.7,643.1,5141.1,652.7,5056.6,623.9 z"/>
		<path d="M2657-631.6 l-128.6-130.5 l130.5-128.6 l130.5-128.6 L2921.9-885 l132.5,134.4 l-122.9,124.8 c-67.2,69.1-128.6,124.8-134.4,124.8 C2791.4-501,2728-558.6,2657-631.6 z"/>
		<path d="M4645.8-1311.1 c-23-11.5-55.7-49.9-72.9-86.4 c-25-53.8-26.9-76.8-9.6-132.4 c51.8-153.6,282.2-161.3,345.5-9.6 C4974.1-1378.3,4807.1-1232.4,4645.8-1311.1 z"/>
		<path d="M2495.8-2199.9 c-23-69.1-36.5-124.8-32.6-124.8 c30.7,0,238,67.2,238,76.8 c0,5.8-36.5,48-82.5,92.1 l-82.6,80.6 L2495.8-2199.9 z"/>
	</g>
</g>
</svg>